<svg xmlns="http://www.w3.org/2000/svg" width="1200" height="1015" viewBox="0 0 1200 1015"><rect width="100%" height="100%" fill="#fafaf7"/><rect x="46.2" y="46.2" width="1107.7" height="923.1" fill="none" stroke="#1a1a1a" stroke-width="2"/><polygon points="609.2,738.5 775.4,738.5 775.4,969.2 609.2,969.2" fill="#e3eee3" stroke="#2a4d3a" stroke-width="1.2"/><g transform="translate(692.3,853.8)"><text text-anchor="middle" dominant-baseline="central" font-family="ui-sans-serif,system-ui" font-size="8.0" fill="#2a4d3a"><tspan x="0" dy="-0.6em">Foyer / Entry</tspan><tspan x="0" dy="1.2em" font-size="6.4" fill="#444">4.5 m²</tspan></text></g><polygon points="775.4,406.2 1153.8,406.2 1153.8,969.2 775.4,969.2" fill="#e3eee3" stroke="#2a4d3a" stroke-width="1.2"/><g transform="translate(964.6,687.7)"><text text-anchor="middle" dominant-baseline="central" font-family="ui-sans-serif,system-ui" font-size="8.0" fill="#2a4d3a"><tspan x="0" dy="-0.6em">Living Room</tspan><tspan x="0" dy="1.2em" font-size="6.4" fill="#444">25.0 m²</tspan></text></g><polygon points="489.2,46.2 775.4,46.2 775.4,443.1 489.2,443.1" fill="#e3eee3" stroke="#2a4d3a" stroke-width="1.2"/><g transform="translate(632.3,244.6)"><text text-anchor="middle" dominant-baseline="central" font-family="ui-sans-serif,system-ui" font-size="8.0" fill="#2a4d3a"><tspan x="0" dy="-0.6em">Kitchen</tspan><tspan x="0" dy="1.2em" font-size="6.4" fill="#444">13.3 m²</tspan></text></g><polygon points="775.4,46.2 1153.8,46.2 1153.8,406.2 775.4,406.2" fill="#e3eee3" stroke="#2a4d3a" stroke-width="1.2"/><g transform="translate(964.6,226.2)"><text text-anchor="middle" dominant-baseline="central" font-family="ui-sans-serif,system-ui" font-size="8.0" fill="#2a4d3a"><tspan x="0" dy="-0.6em">Dining Room</tspan><tspan x="0" dy="1.2em" font-size="6.4" fill="#444">16.0 m²</tspan></text></g><polygon points="46.2,46.2 489.2,46.2 489.2,443.1 46.2,443.1" fill="#e6e2f0" stroke="#4a3a8a" stroke-width="1.2"/><g transform="translate(267.7,244.6)"><text text-anchor="middle" dominant-baseline="central" font-family="ui-sans-serif,system-ui" font-size="8.0" fill="#4a3a8a"><tspan x="0" dy="-0.6em">Primary Bedroom</tspan><tspan x="0" dy="1.2em" font-size="6.4" fill="#444">20.6 m²</tspan></text></g><polygon points="46.2,443.1 609.2,443.1 609.2,692.3 46.2,692.3" fill="#e6e2f0" stroke="#4a3a8a" stroke-width="1.2"/><g transform="translate(327.7,567.7)"><text text-anchor="middle" dominant-baseline="central" font-family="ui-sans-serif,system-ui" font-size="8.0" fill="#4a3a8a"><tspan x="0" dy="-0.6em">Bedroom 1</tspan><tspan x="0" dy="1.2em" font-size="6.4" fill="#444">16.5 m²</tspan></text></g><polygon points="46.2,692.3 443.1,692.3 443.1,969.2 46.2,969.2" fill="#e6e2f0" stroke="#4a3a8a" stroke-width="1.2"/><g transform="translate(244.6,830.8)"><text text-anchor="middle" dominant-baseline="central" font-family="ui-sans-serif,system-ui" font-size="8.0" fill="#4a3a8a"><tspan x="0" dy="-0.6em">Bedroom 2</tspan><tspan x="0" dy="1.2em" font-size="6.4" fill="#444">12.9 m²</tspan></text></g><polygon points="609.2,443.1 775.4,443.1 775.4,738.5 609.2,738.5" fill="#f0e3d6" stroke="#8a553a" stroke-width="1.2"/><g transform="translate(692.3,590.8)"><text text-anchor="middle" dominant-baseline="central" font-family="ui-sans-serif,system-ui" font-size="8.0" fill="#8a553a"><tspan x="0" dy="-0.6em">Full Bathroom 1</tspan><tspan x="0" dy="1.2em" font-size="6.4" fill="#444">5.8 m²</tspan></text></g><polygon points="443.1,692.3 609.2,692.3 609.2,969.2 443.1,969.2" fill="#f0e3d6" stroke="#8a553a" stroke-width="1.2"/><g transform="translate(526.2,830.8)"><text text-anchor="middle" dominant-baseline="central" font-family="ui-sans-serif,system-ui" font-size="8.0" fill="#8a553a"><tspan x="0" dy="-0.6em">Full Bathroom 2</tspan><tspan x="0" dy="1.2em" font-size="6.4" fill="#444">5.4 m²</tspan></text></g><text x="46.2" y="23.1" font-family="ui-sans-serif,system-ui" font-size="14" fill="#1a1a1a">After entry-on-perimeter + fixtures</text></svg>