<svg xmlns="http://www.w3.org/2000/svg" width="1200" height="960" viewBox="0 0 1200 960"><rect width="100%" height="100%" fill="#fafaf7"/><rect x="40.0" y="40.0" width="1120.0" height="880.0" fill="none" stroke="#1a1a1a" stroke-width="2"/><polygon points="560.0,192.0 808.0,192.0 808.0,312.0 560.0,312.0" fill="#e3eee3" stroke="#2a4d3a" stroke-width="1.2"/><g transform="translate(684.0,252.0)"><text text-anchor="middle" dominant-baseline="central" font-family="ui-sans-serif,system-ui" font-size="8.0" fill="#2a4d3a"><tspan x="0" dy="-0.6em">Foyer / Entry</tspan><tspan x="0" dy="1.2em" font-size="6.4" fill="#444">4.7 m²</tspan></text></g><polygon points="808.0,192.0 1160.0,192.0 1160.0,680.0 808.0,680.0" fill="#e3eee3" stroke="#2a4d3a" stroke-width="1.2"/><g transform="translate(984.0,436.0)"><text text-anchor="middle" dominant-baseline="central" font-family="ui-sans-serif,system-ui" font-size="8.0" fill="#2a4d3a"><tspan x="0" dy="-0.6em">Living Room</tspan><tspan x="0" dy="1.2em" font-size="6.4" fill="#444">26.8 m²</tspan></text></g><polygon points="560.0,312.0 808.0,312.0 808.0,680.0 560.0,680.0" fill="#e3eee3" stroke="#2a4d3a" stroke-width="1.2"/><g transform="translate(684.0,496.0)"><text text-anchor="middle" dominant-baseline="central" font-family="ui-sans-serif,system-ui" font-size="8.0" fill="#2a4d3a"><tspan x="0" dy="-0.6em">Kitchen</tspan><tspan x="0" dy="1.2em" font-size="6.4" fill="#444">14.3 m²</tspan></text></g><polygon points="696.0,680.0 1160.0,680.0 1160.0,920.0 696.0,920.0" fill="#e3eee3" stroke="#2a4d3a" stroke-width="1.2"/><g transform="translate(928.0,800.0)"><text text-anchor="middle" dominant-baseline="central" font-family="ui-sans-serif,system-ui" font-size="8.0" fill="#2a4d3a"><tspan x="0" dy="-0.6em">Dining Room</tspan><tspan x="0" dy="1.2em" font-size="6.4" fill="#444">17.4 m²</tspan></text></g><polygon points="272.0,192.0 560.0,192.0 560.0,680.0 272.0,680.0" fill="#e6e2f0" stroke="#4a3a8a" stroke-width="1.2"/><g transform="translate(416.0,436.0)"><text text-anchor="middle" dominant-baseline="central" font-family="ui-sans-serif,system-ui" font-size="8.0" fill="#4a3a8a"><tspan x="0" dy="-0.6em">Primary Bedroom</tspan><tspan x="0" dy="1.2em" font-size="6.4" fill="#444">22.0 m²</tspan></text></g><polygon points="272.0,680.0 696.0,680.0 696.0,920.0 272.0,920.0" fill="#e6e2f0" stroke="#4a3a8a" stroke-width="1.2"/><g transform="translate(484.0,800.0)"><text text-anchor="middle" dominant-baseline="central" font-family="ui-sans-serif,system-ui" font-size="8.0" fill="#4a3a8a"><tspan x="0" dy="-0.6em">Bedroom 1</tspan><tspan x="0" dy="1.2em" font-size="6.4" fill="#444">15.9 m²</tspan></text></g><polygon points="40.0,480.0 272.0,480.0 272.0,920.0 40.0,920.0" fill="#e6e2f0" stroke="#4a3a8a" stroke-width="1.2"/><g transform="translate(156.0,700.0)"><text text-anchor="middle" dominant-baseline="central" font-family="ui-sans-serif,system-ui" font-size="8.0" fill="#4a3a8a"><tspan x="0" dy="-0.6em">Bedroom 2</tspan><tspan x="0" dy="1.2em" font-size="6.4" fill="#444">15.9 m²</tspan></text></g><polygon points="40.0,40.0 272.0,40.0 272.0,480.0 40.0,480.0" fill="#e6e2f0" stroke="#4a3a8a" stroke-width="1.2"/><g transform="translate(156.0,260.0)"><text text-anchor="middle" dominant-baseline="central" font-family="ui-sans-serif,system-ui" font-size="8.0" fill="#4a3a8a"><tspan x="0" dy="-0.6em">Bedroom 3</tspan><tspan x="0" dy="1.2em" font-size="6.4" fill="#444">15.9 m²</tspan></text></g><polygon points="272.0,40.0 536.0,40.0 536.0,192.0 272.0,192.0" fill="#f0e3d6" stroke="#8a553a" stroke-width="1.2"/><g transform="translate(404.0,116.0)"><text text-anchor="middle" dominant-baseline="central" font-family="ui-sans-serif,system-ui" font-size="8.0" fill="#8a553a"><tspan x="0" dy="-0.6em">Full Bathroom 1</tspan><tspan x="0" dy="1.2em" font-size="6.4" fill="#444">6.3 m²</tspan></text></g><polygon points="896.0,40.0 1160.0,40.0 1160.0,192.0 896.0,192.0" fill="#f0e3d6" stroke="#8a553a" stroke-width="1.2"/><g transform="translate(1028.0,116.0)"><text text-anchor="middle" dominant-baseline="central" font-family="ui-sans-serif,system-ui" font-size="8.0" fill="#8a553a"><tspan x="0" dy="-0.6em">Full Bathroom 2</tspan><tspan x="0" dy="1.2em" font-size="6.4" fill="#444">6.3 m²</tspan></text></g><polygon points="792.0,40.0 896.0,40.0 896.0,192.0 792.0,192.0" fill="#f0e3d6" stroke="#8a553a" stroke-width="1.2"/><g transform="translate(844.0,116.0)"><text text-anchor="middle" dominant-baseline="central" font-family="ui-sans-serif,system-ui" font-size="8.0" fill="#8a553a"><tspan x="0" dy="-0.6em">Half Bath / Powder</tspan><tspan x="0" dy="1.2em" font-size="6.4" fill="#444">2.5 m²</tspan></text></g><polygon points="536.0,40.0 792.0,40.0 792.0,192.0 536.0,192.0" fill="#f0e3d6" stroke="#8a553a" stroke-width="1.2"/><g transform="translate(664.0,116.0)"><text text-anchor="middle" dominant-baseline="central" font-family="ui-sans-serif,system-ui" font-size="8.0" fill="#8a553a"><tspan x="0" dy="-0.6em">Laundry / Utility</tspan><tspan x="0" dy="1.2em" font-size="6.4" fill="#444">6.1 m²</tspan></text></g><text x="40.0" y="20.0" font-family="ui-sans-serif,system-ui" font-size="14" fill="#1a1a1a">Final 3-bed plan · cost 4.14</text></svg>