<svg xmlns="http://www.w3.org/2000/svg" width="1200" height="960" viewBox="0 0 1200 960"><rect width="100%" height="100%" fill="#fafaf7"/><rect x="40.0" y="40.0" width="1120.0" height="880.0" fill="none" stroke="#1a1a1a" stroke-width="2"/><polygon points="184.0,664.0 328.0,664.0 328.0,920.0 184.0,920.0" fill="#e3eee3" stroke="#2a4d3a" stroke-width="1.2"/><g transform="translate(256.0,792.0)"><text text-anchor="middle" dominant-baseline="central" font-family="ui-sans-serif,system-ui" font-size="8.0" fill="#2a4d3a"><tspan x="0" dy="-0.6em">Foyer / Entry</tspan><tspan x="0" dy="1.2em" font-size="6.4" fill="#444">5.8 m²</tspan></text></g><polygon points="328.0,616.0 912.0,616.0 912.0,920.0 328.0,920.0" fill="#e3eee3" stroke="#2a4d3a" stroke-width="1.2"/><g transform="translate(620.0,768.0)"><text text-anchor="middle" dominant-baseline="central" font-family="ui-sans-serif,system-ui" font-size="8.0" fill="#2a4d3a"><tspan x="0" dy="-0.6em">Living Room</tspan><tspan x="0" dy="1.2em" font-size="6.4" fill="#444">27.7 m²</tspan></text></g><polygon points="912.0,496.0 1160.0,496.0 1160.0,920.0 912.0,920.0" fill="#e3eee3" stroke="#2a4d3a" stroke-width="1.2"/><g transform="translate(1036.0,708.0)"><text text-anchor="middle" dominant-baseline="central" font-family="ui-sans-serif,system-ui" font-size="8.0" fill="#2a4d3a"><tspan x="0" dy="-0.6em">Kitchen</tspan><tspan x="0" dy="1.2em" font-size="6.4" fill="#444">16.4 m²</tspan></text></g><polygon points="480.0,352.0 912.0,352.0 912.0,616.0 480.0,616.0" fill="#e3eee3" stroke="#2a4d3a" stroke-width="1.2"/><g transform="translate(696.0,484.0)"><text text-anchor="middle" dominant-baseline="central" font-family="ui-sans-serif,system-ui" font-size="8.0" fill="#2a4d3a"><tspan x="0" dy="-0.6em">Dining Room</tspan><tspan x="0" dy="1.2em" font-size="6.4" fill="#444">17.8 m²</tspan></text></g><polygon points="40.0,40.0 544.0,40.0 544.0,352.0 40.0,352.0" fill="#e6e2f0" stroke="#4a3a8a" stroke-width="1.2"/><g transform="translate(292.0,196.0)"><text text-anchor="middle" dominant-baseline="central" font-family="ui-sans-serif,system-ui" font-size="8.0" fill="#4a3a8a"><tspan x="0" dy="-0.6em">Primary Bedroom</tspan><tspan x="0" dy="1.2em" font-size="6.4" fill="#444">24.6 m²</tspan></text></g><polygon points="544.0,40.0 912.0,40.0 912.0,352.0 544.0,352.0" fill="#e6e2f0" stroke="#4a3a8a" stroke-width="1.2"/><g transform="translate(728.0,196.0)"><text text-anchor="middle" dominant-baseline="central" font-family="ui-sans-serif,system-ui" font-size="8.0" fill="#4a3a8a"><tspan x="0" dy="-0.6em">Bedroom 1</tspan><tspan x="0" dy="1.2em" font-size="6.4" fill="#444">17.9 m²</tspan></text></g><polygon points="912.0,40.0 1160.0,40.0 1160.0,496.0 912.0,496.0" fill="#e6e2f0" stroke="#4a3a8a" stroke-width="1.2"/><g transform="translate(1036.0,268.0)"><text text-anchor="middle" dominant-baseline="central" font-family="ui-sans-serif,system-ui" font-size="8.0" fill="#4a3a8a"><tspan x="0" dy="-0.6em">Bedroom 2</tspan><tspan x="0" dy="1.2em" font-size="6.4" fill="#444">17.7 m²</tspan></text></g><polygon points="184.0,352.0 328.0,352.0 328.0,664.0 184.0,664.0" fill="#f0e3d6" stroke="#8a553a" stroke-width="1.2"/><g transform="translate(256.0,508.0)"><text text-anchor="middle" dominant-baseline="central" font-family="ui-sans-serif,system-ui" font-size="8.0" fill="#8a553a"><tspan x="0" dy="-0.6em">Full Bathroom 1</tspan><tspan x="0" dy="1.2em" font-size="6.4" fill="#444">7.0 m²</tspan></text></g><polygon points="328.0,352.0 480.0,352.0 480.0,616.0 328.0,616.0" fill="#f0e3d6" stroke="#8a553a" stroke-width="1.2"/><g transform="translate(404.0,484.0)"><text text-anchor="middle" dominant-baseline="central" font-family="ui-sans-serif,system-ui" font-size="8.0" fill="#8a553a"><tspan x="0" dy="-0.6em">Full Bathroom 2</tspan><tspan x="0" dy="1.2em" font-size="6.4" fill="#444">6.3 m²</tspan></text></g><polygon points="40.0,760.0 184.0,760.0 184.0,920.0 40.0,920.0" fill="#f0e3d6" stroke="#8a553a" stroke-width="1.2"/><g transform="translate(112.0,840.0)"><text text-anchor="middle" dominant-baseline="central" font-family="ui-sans-serif,system-ui" font-size="8.0" fill="#8a553a"><tspan x="0" dy="-0.6em">Half Bath / Powder</tspan><tspan x="0" dy="1.2em" font-size="6.4" fill="#444">3.6 m²</tspan></text></g><polygon points="40.0,352.0 184.0,352.0 184.0,760.0 40.0,760.0" fill="#f0e3d6" stroke="#8a553a" stroke-width="1.2"/><g transform="translate(112.0,556.0)"><text text-anchor="middle" dominant-baseline="central" font-family="ui-sans-serif,system-ui" font-size="8.0" fill="#8a553a"><tspan x="0" dy="-0.6em">Laundry / Utility</tspan><tspan x="0" dy="1.2em" font-size="6.4" fill="#444">9.2 m²</tspan></text></g><text x="40.0" y="20.0" font-family="ui-sans-serif,system-ui" font-size="14" fill="#1a1a1a">Open-plan with privacy walls</text></svg>