<svg xmlns="http://www.w3.org/2000/svg" width="1200" height="960" viewBox="0 0 1200 960"><rect width="100%" height="100%" fill="#fafaf7"/><rect x="40.0" y="40.0" width="1120.0" height="880.0" fill="none" stroke="#1a1a1a" stroke-width="2"/><polygon points="40.0,784.0 320.0,784.0 320.0,920.0 40.0,920.0" fill="#e3eee3" stroke="#2a4d3a" stroke-width="1.2"/><g transform="translate(180.0,852.0)"><text text-anchor="middle" dominant-baseline="central" font-family="ui-sans-serif,system-ui" font-size="8.0" fill="#2a4d3a"><tspan x="0" dy="-0.6em">Foyer / Entry</tspan><tspan x="0" dy="1.2em" font-size="6.4" fill="#444">6.0 m²</tspan></text></g><polygon points="40.0,40.0 320.0,40.0 320.0,784.0 40.0,784.0" fill="#e3eee3" stroke="#2a4d3a" stroke-width="1.2"/><g transform="translate(180.0,412.0)"><text text-anchor="middle" dominant-baseline="central" font-family="ui-sans-serif,system-ui" font-size="8.0" fill="#2a4d3a"><tspan x="0" dy="-0.6em">Living Room</tspan><tspan x="0" dy="1.2em" font-size="6.4" fill="#444">32.5 m²</tspan></text></g><polygon points="320.0,480.0 528.0,480.0 528.0,920.0 320.0,920.0" fill="#e3eee3" stroke="#2a4d3a" stroke-width="1.2"/><g transform="translate(424.0,700.0)"><text text-anchor="middle" dominant-baseline="central" font-family="ui-sans-serif,system-ui" font-size="8.0" fill="#2a4d3a"><tspan x="0" dy="-0.6em">Kitchen</tspan><tspan x="0" dy="1.2em" font-size="6.4" fill="#444">14.3 m²</tspan></text></g><polygon points="528.0,600.0 872.0,600.0 872.0,920.0 528.0,920.0" fill="#e3eee3" stroke="#2a4d3a" stroke-width="1.2"/><g transform="translate(700.0,760.0)"><text text-anchor="middle" dominant-baseline="central" font-family="ui-sans-serif,system-ui" font-size="8.0" fill="#2a4d3a"><tspan x="0" dy="-0.6em">Dining Room</tspan><tspan x="0" dy="1.2em" font-size="6.4" fill="#444">17.2 m²</tspan></text></g><polygon points="872.0,40.0 1160.0,40.0 1160.0,552.0 872.0,552.0" fill="#e6e2f0" stroke="#4a3a8a" stroke-width="1.2"/><g transform="translate(1016.0,296.0)"><text text-anchor="middle" dominant-baseline="central" font-family="ui-sans-serif,system-ui" font-size="8.0" fill="#4a3a8a"><tspan x="0" dy="-0.6em">Primary Bedroom</tspan><tspan x="0" dy="1.2em" font-size="6.4" fill="#444">23.0 m²</tspan></text></g><polygon points="872.0,552.0 1160.0,552.0 1160.0,920.0 872.0,920.0" fill="#e6e2f0" stroke="#4a3a8a" stroke-width="1.2"/><g transform="translate(1016.0,736.0)"><text text-anchor="middle" dominant-baseline="central" font-family="ui-sans-serif,system-ui" font-size="8.0" fill="#4a3a8a"><tspan x="0" dy="-0.6em">Bedroom 1</tspan><tspan x="0" dy="1.2em" font-size="6.4" fill="#444">16.6 m²</tspan></text></g><polygon points="528.0,296.0 872.0,296.0 872.0,600.0 528.0,600.0" fill="#e6e2f0" stroke="#4a3a8a" stroke-width="1.2"/><g transform="translate(700.0,448.0)"><text text-anchor="middle" dominant-baseline="central" font-family="ui-sans-serif,system-ui" font-size="8.0" fill="#4a3a8a"><tspan x="0" dy="-0.6em">Bedroom 2</tspan><tspan x="0" dy="1.2em" font-size="6.4" fill="#444">16.3 m²</tspan></text></g><polygon points="472.0,40.0 872.0,40.0 872.0,296.0 472.0,296.0" fill="#e6e2f0" stroke="#4a3a8a" stroke-width="1.2"/><g transform="translate(672.0,168.0)"><text text-anchor="middle" dominant-baseline="central" font-family="ui-sans-serif,system-ui" font-size="8.0" fill="#4a3a8a"><tspan x="0" dy="-0.6em">Bedroom 3</tspan><tspan x="0" dy="1.2em" font-size="6.4" fill="#444">16.0 m²</tspan></text></g><polygon points="320.0,296.0 528.0,296.0 528.0,480.0 320.0,480.0" fill="#f0e3d6" stroke="#8a553a" stroke-width="1.2"/><g transform="translate(424.0,388.0)"><text text-anchor="middle" dominant-baseline="central" font-family="ui-sans-serif,system-ui" font-size="8.0" fill="#8a553a"><tspan x="0" dy="-0.6em">Full Bathroom 1</tspan><tspan x="0" dy="1.2em" font-size="6.4" fill="#444">6.0 m²</tspan></text></g><polygon points="320.0,40.0 472.0,40.0 472.0,296.0 320.0,296.0" fill="#f0e3d6" stroke="#8a553a" stroke-width="1.2"/><g transform="translate(396.0,168.0)"><text text-anchor="middle" dominant-baseline="central" font-family="ui-sans-serif,system-ui" font-size="8.0" fill="#8a553a"><tspan x="0" dy="-0.6em">Full Bathroom 2</tspan><tspan x="0" dy="1.2em" font-size="6.4" fill="#444">6.1 m²</tspan></text></g><text x="40.0" y="20.0" font-family="ui-sans-serif,system-ui" font-size="14" fill="#1a1a1a">Step 4.5 finished plan · cost 11.87</text></svg>