<svg xmlns="http://www.w3.org/2000/svg" width="1200" height="960" viewBox="0 0 1200 960"><rect width="100%" height="100%" fill="#fafaf7"/><rect x="40.0" y="40.0" width="1120.0" height="880.0" fill="none" stroke="#1a1a1a" stroke-width="2"/><polygon points="762.7,40.0 882.7,40.0 882.7,920.0 762.7,920.0" fill="#e3eee3" stroke="#2a4d3a" stroke-width="1.2"/><g transform="translate(822.7,480.0)"><text text-anchor="middle" dominant-baseline="central" font-family="ui-sans-serif,system-ui" font-size="8.0" fill="#2a4d3a"><tspan x="0" dy="-0.6em">Foyer / Entry</tspan><tspan x="0" dy="1.2em" font-size="6.4" fill="#444">16.5 m²</tspan></text></g><polygon points="40.0,40.0 464.0,40.0 464.0,405.5 40.0,405.5" fill="#e3eee3" stroke="#2a4d3a" stroke-width="1.2"/><g transform="translate(252.0,222.8)"><text text-anchor="middle" dominant-baseline="central" font-family="ui-sans-serif,system-ui" font-size="8.0" fill="#2a4d3a"><tspan x="0" dy="-0.6em">Living Room</tspan><tspan x="0" dy="1.2em" font-size="6.4" fill="#444">24.2 m²</tspan></text></g><polygon points="40.0,549.5 464.0,549.5 464.0,776.0 40.0,776.0" fill="#e3eee3" stroke="#2a4d3a" stroke-width="1.2"/><g transform="translate(252.0,662.8)"><text text-anchor="middle" dominant-baseline="central" font-family="ui-sans-serif,system-ui" font-size="8.0" fill="#2a4d3a"><tspan x="0" dy="-0.6em">Kitchen</tspan><tspan x="0" dy="1.2em" font-size="6.4" fill="#444">15.0 m²</tspan></text></g><polygon points="464.0,409.0 762.7,409.0 762.7,920.0 464.0,920.0" fill="#e6e2f0" stroke="#4a3a8a" stroke-width="1.2"/><g transform="translate(613.3,664.5)"><text text-anchor="middle" dominant-baseline="central" font-family="ui-sans-serif,system-ui" font-size="8.0" fill="#4a3a8a"><tspan x="0" dy="-0.6em">Primary Bedroom</tspan><tspan x="0" dy="1.2em" font-size="6.4" fill="#444">23.8 m²</tspan></text></g><polygon points="882.7,40.0 1160.0,40.0 1160.0,480.0 882.7,480.0" fill="#e6e2f0" stroke="#4a3a8a" stroke-width="1.2"/><g transform="translate(1021.3,260.0)"><text text-anchor="middle" dominant-baseline="central" font-family="ui-sans-serif,system-ui" font-size="8.0" fill="#4a3a8a"><tspan x="0" dy="-0.6em">Bedroom 1</tspan><tspan x="0" dy="1.2em" font-size="6.4" fill="#444">19.1 m²</tspan></text></g><polygon points="464.0,40.0 762.7,40.0 762.7,409.0 464.0,409.0" fill="#e6e2f0" stroke="#4a3a8a" stroke-width="1.2"/><g transform="translate(613.3,224.5)"><text text-anchor="middle" dominant-baseline="central" font-family="ui-sans-serif,system-ui" font-size="8.0" fill="#4a3a8a"><tspan x="0" dy="-0.6em">Bedroom 2</tspan><tspan x="0" dy="1.2em" font-size="6.4" fill="#444">17.2 m²</tspan></text></g><polygon points="882.7,480.0 1160.0,480.0 1160.0,920.0 882.7,920.0" fill="#e6e2f0" stroke="#4a3a8a" stroke-width="1.2"/><g transform="translate(1021.3,700.0)"><text text-anchor="middle" dominant-baseline="central" font-family="ui-sans-serif,system-ui" font-size="8.0" fill="#4a3a8a"><tspan x="0" dy="-0.6em">Bedroom 3</tspan><tspan x="0" dy="1.2em" font-size="6.4" fill="#444">19.1 m²</tspan></text></g><polygon points="40.0,776.0 464.0,776.0 464.0,920.0 40.0,920.0" fill="#f0e3d6" stroke="#8a553a" stroke-width="1.2"/><g transform="translate(252.0,848.0)"><text text-anchor="middle" dominant-baseline="central" font-family="ui-sans-serif,system-ui" font-size="8.0" fill="#8a553a"><tspan x="0" dy="-0.6em">Full Bathroom 1</tspan><tspan x="0" dy="1.2em" font-size="6.4" fill="#444">9.5 m²</tspan></text></g><polygon points="40.0,405.5 464.0,405.5 464.0,549.5 40.0,549.5" fill="#f0e3d6" stroke="#8a553a" stroke-width="1.2"/><g transform="translate(252.0,477.5)"><text text-anchor="middle" dominant-baseline="central" font-family="ui-sans-serif,system-ui" font-size="8.0" fill="#8a553a"><tspan x="0" dy="-0.6em">Full Bathroom 2</tspan><tspan x="0" dy="1.2em" font-size="6.4" fill="#444">9.5 m²</tspan></text></g><text x="40.0" y="20.0" font-family="ui-sans-serif,system-ui" font-size="14" fill="#1a1a1a">Step 4.2 random feasible tree · seed 1 · 14000x11000</text></svg>