<svg xmlns="http://www.w3.org/2000/svg" width="1200" height="960" viewBox="0 0 1200 960"><rect width="100%" height="100%" fill="#fafaf7"/><rect x="40.0" y="40.0" width="1120.0" height="880.0" fill="none" stroke="#1a1a1a" stroke-width="2"/><polygon points="528.0,448.0 680.0,448.0 680.0,664.0 528.0,664.0" fill="#e3eee3" stroke="#2a4d3a" stroke-width="1.2"/><g transform="translate(604.0,556.0)"><text text-anchor="middle" dominant-baseline="central" font-family="ui-sans-serif,system-ui" font-size="8.0" fill="#2a4d3a"><tspan x="0" dy="-0.6em">Foyer / Entry</tspan><tspan x="0" dy="1.2em" font-size="6.4" fill="#444">5.1 m²</tspan></text></g><polygon points="344.0,40.0 792.0,40.0 792.0,448.0 344.0,448.0" fill="#e3eee3" stroke="#2a4d3a" stroke-width="1.2"/><g transform="translate(568.0,244.0)"><text text-anchor="middle" dominant-baseline="central" font-family="ui-sans-serif,system-ui" font-size="8.0" fill="#2a4d3a"><tspan x="0" dy="-0.6em">Living Room</tspan><tspan x="0" dy="1.2em" font-size="6.4" fill="#444">28.6 m²</tspan></text></g><polygon points="344.0,664.0 736.0,664.0 736.0,920.0 344.0,920.0" fill="#e3eee3" stroke="#2a4d3a" stroke-width="1.2"/><g transform="translate(540.0,792.0)"><text text-anchor="middle" dominant-baseline="central" font-family="ui-sans-serif,system-ui" font-size="8.0" fill="#2a4d3a"><tspan x="0" dy="-0.6em">Kitchen</tspan><tspan x="0" dy="1.2em" font-size="6.4" fill="#444">15.7 m²</tspan></text></g><polygon points="40.0,40.0 344.0,40.0 344.0,416.0 40.0,416.0" fill="#e3eee3" stroke="#2a4d3a" stroke-width="1.2"/><g transform="translate(192.0,228.0)"><text text-anchor="middle" dominant-baseline="central" font-family="ui-sans-serif,system-ui" font-size="8.0" fill="#2a4d3a"><tspan x="0" dy="-0.6em">Dining Room</tspan><tspan x="0" dy="1.2em" font-size="6.4" fill="#444">17.9 m²</tspan></text></g><polygon points="792.0,40.0 1160.0,40.0 1160.0,448.0 792.0,448.0" fill="#e6e2f0" stroke="#4a3a8a" stroke-width="1.2"/><g transform="translate(976.0,244.0)"><text text-anchor="middle" dominant-baseline="central" font-family="ui-sans-serif,system-ui" font-size="8.0" fill="#4a3a8a"><tspan x="0" dy="-0.6em">Primary Bedroom</tspan><tspan x="0" dy="1.2em" font-size="6.4" fill="#444">23.5 m²</tspan></text></g><polygon points="680.0,448.0 1160.0,448.0 1160.0,664.0 680.0,664.0" fill="#e6e2f0" stroke="#4a3a8a" stroke-width="1.2"/><g transform="translate(920.0,556.0)"><text text-anchor="middle" dominant-baseline="central" font-family="ui-sans-serif,system-ui" font-size="8.0" fill="#4a3a8a"><tspan x="0" dy="-0.6em">Bedroom 1</tspan><tspan x="0" dy="1.2em" font-size="6.4" fill="#444">16.2 m²</tspan></text></g><polygon points="736.0,664.0 1160.0,664.0 1160.0,920.0 736.0,920.0" fill="#e6e2f0" stroke="#4a3a8a" stroke-width="1.2"/><g transform="translate(948.0,792.0)"><text text-anchor="middle" dominant-baseline="central" font-family="ui-sans-serif,system-ui" font-size="8.0" fill="#4a3a8a"><tspan x="0" dy="-0.6em">Bedroom 2</tspan><tspan x="0" dy="1.2em" font-size="6.4" fill="#444">17.0 m²</tspan></text></g><polygon points="40.0,560.0 344.0,560.0 344.0,920.0 40.0,920.0" fill="#e6e2f0" stroke="#4a3a8a" stroke-width="1.2"/><g transform="translate(192.0,740.0)"><text text-anchor="middle" dominant-baseline="central" font-family="ui-sans-serif,system-ui" font-size="8.0" fill="#4a3a8a"><tspan x="0" dy="-0.6em">Bedroom 3</tspan><tspan x="0" dy="1.2em" font-size="6.4" fill="#444">17.1 m²</tspan></text></g><polygon points="40.0,416.0 344.0,416.0 344.0,560.0 40.0,560.0" fill="#f0e3d6" stroke="#8a553a" stroke-width="1.2"/><g transform="translate(192.0,488.0)"><text text-anchor="middle" dominant-baseline="central" font-family="ui-sans-serif,system-ui" font-size="8.0" fill="#8a553a"><tspan x="0" dy="-0.6em">Full Bathroom 1</tspan><tspan x="0" dy="1.2em" font-size="6.4" fill="#444">6.8 m²</tspan></text></g><polygon points="344.0,448.0 528.0,448.0 528.0,664.0 344.0,664.0" fill="#f0e3d6" stroke="#8a553a" stroke-width="1.2"/><g transform="translate(436.0,556.0)"><text text-anchor="middle" dominant-baseline="central" font-family="ui-sans-serif,system-ui" font-size="8.0" fill="#8a553a"><tspan x="0" dy="-0.6em">Full Bathroom 2</tspan><tspan x="0" dy="1.2em" font-size="6.4" fill="#444">6.2 m²</tspan></text></g><text x="40.0" y="20.0" font-family="ui-sans-serif,system-ui" font-size="14" fill="#1a1a1a">Step 4.5 finished plan · cost 2.84</text></svg>