<svg xmlns="http://www.w3.org/2000/svg" width="1200" height="960" viewBox="0 0 1200 960"><rect width="100%" height="100%" fill="#fafaf7"/><rect x="40.0" y="40.0" width="1120.0" height="880.0" fill="none" stroke="#1a1a1a" stroke-width="2"/><polygon points="40.0,40.0 219.0,40.0 219.0,222.1 40.0,222.1" fill="#e3eee3" stroke="#2a4d3a" stroke-width="1.2"/><g transform="translate(129.5,131.0)"><text text-anchor="middle" dominant-baseline="central" font-family="ui-sans-serif,system-ui" font-size="8.0" fill="#2a4d3a"><tspan x="0" dy="-0.6em">Foyer / Entry</tspan><tspan x="0" dy="1.2em" font-size="6.4" fill="#444">5.1 m²</tspan></text></g><polygon points="308.4,40.0 690.8,40.0 690.8,508.7 308.4,508.7" fill="#e3eee3" stroke="#2a4d3a" stroke-width="1.2"/><g transform="translate(499.6,274.3)"><text text-anchor="middle" dominant-baseline="central" font-family="ui-sans-serif,system-ui" font-size="8.0" fill="#2a4d3a"><tspan x="0" dy="-0.6em">Living Room</tspan><tspan x="0" dy="1.2em" font-size="6.4" fill="#444">28.0 m²</tspan></text></g><polygon points="308.4,508.7 803.5,508.7 803.5,704.0 308.4,704.0" fill="#e3eee3" stroke="#2a4d3a" stroke-width="1.2"/><g transform="translate(556.0,606.3)"><text text-anchor="middle" dominant-baseline="central" font-family="ui-sans-serif,system-ui" font-size="8.0" fill="#2a4d3a"><tspan x="0" dy="-0.6em">Kitchen</tspan><tspan x="0" dy="1.2em" font-size="6.4" fill="#444">15.1 m²</tspan></text></g><polygon points="690.8,40.0 934.1,40.0 934.1,508.7 690.8,508.7" fill="#e3eee3" stroke="#2a4d3a" stroke-width="1.2"/><g transform="translate(812.4,274.3)"><text text-anchor="middle" dominant-baseline="central" font-family="ui-sans-serif,system-ui" font-size="8.0" fill="#2a4d3a"><tspan x="0" dy="-0.6em">Dining Room</tspan><tspan x="0" dy="1.2em" font-size="6.4" fill="#444">17.8 m²</tspan></text></g><polygon points="803.5,508.7 1160.0,508.7 1160.0,920.0 803.5,920.0" fill="#e6e2f0" stroke="#4a3a8a" stroke-width="1.2"/><g transform="translate(981.8,714.3)"><text text-anchor="middle" dominant-baseline="central" font-family="ui-sans-serif,system-ui" font-size="8.0" fill="#4a3a8a"><tspan x="0" dy="-0.6em">Primary Bedroom</tspan><tspan x="0" dy="1.2em" font-size="6.4" fill="#444">22.9 m²</tspan></text></g><polygon points="308.4,704.0 803.5,704.0 803.5,920.0 308.4,920.0" fill="#e6e2f0" stroke="#4a3a8a" stroke-width="1.2"/><g transform="translate(556.0,812.0)"><text text-anchor="middle" dominant-baseline="central" font-family="ui-sans-serif,system-ui" font-size="8.0" fill="#4a3a8a"><tspan x="0" dy="-0.6em">Bedroom 1</tspan><tspan x="0" dy="1.2em" font-size="6.4" fill="#444">16.7 m²</tspan></text></g><polygon points="40.0,525.5 308.4,525.5 308.4,920.0 40.0,920.0" fill="#e6e2f0" stroke="#4a3a8a" stroke-width="1.2"/><g transform="translate(174.2,722.8)"><text text-anchor="middle" dominant-baseline="central" font-family="ui-sans-serif,system-ui" font-size="8.0" fill="#4a3a8a"><tspan x="0" dy="-0.6em">Bedroom 2</tspan><tspan x="0" dy="1.2em" font-size="6.4" fill="#444">16.5 m²</tspan></text></g><polygon points="934.1,40.0 1160.0,40.0 1160.0,508.7 934.1,508.7" fill="#e6e2f0" stroke="#4a3a8a" stroke-width="1.2"/><g transform="translate(1047.0,274.3)"><text text-anchor="middle" dominant-baseline="central" font-family="ui-sans-serif,system-ui" font-size="8.0" fill="#4a3a8a"><tspan x="0" dy="-0.6em">Bedroom 3</tspan><tspan x="0" dy="1.2em" font-size="6.4" fill="#444">16.5 m²</tspan></text></g><polygon points="40.0,222.1 308.4,222.1 308.4,373.8 40.0,373.8" fill="#f0e3d6" stroke="#8a553a" stroke-width="1.2"/><g transform="translate(174.2,297.9)"><text text-anchor="middle" dominant-baseline="central" font-family="ui-sans-serif,system-ui" font-size="8.0" fill="#8a553a"><tspan x="0" dy="-0.6em">Full Bathroom 1</tspan><tspan x="0" dy="1.2em" font-size="6.4" fill="#444">6.4 m²</tspan></text></g><polygon points="40.0,373.8 308.4,373.8 308.4,525.5 40.0,525.5" fill="#f0e3d6" stroke="#8a553a" stroke-width="1.2"/><g transform="translate(174.2,449.7)"><text text-anchor="middle" dominant-baseline="central" font-family="ui-sans-serif,system-ui" font-size="8.0" fill="#8a553a"><tspan x="0" dy="-0.6em">Full Bathroom 2</tspan><tspan x="0" dy="1.2em" font-size="6.4" fill="#444">6.4 m²</tspan></text></g><polygon points="219.0,40.0 308.4,40.0 308.4,222.1 219.0,222.1" fill="#f0e3d6" stroke="#8a553a" stroke-width="1.2"/><g transform="translate(263.7,131.0)"><text text-anchor="middle" dominant-baseline="central" font-family="ui-sans-serif,system-ui" font-size="8.0" fill="#8a553a"><tspan x="0" dy="-0.6em">Half Bath / Powder</tspan><tspan x="0" dy="1.2em" font-size="6.4" fill="#444">2.5 m²</tspan></text></g><text x="40.0" y="20.0" font-family="ui-sans-serif,system-ui" font-size="14" fill="#1a1a1a">Step 4.4 annealed plan · cost 5.77 · 14000x11000</text></svg>