<svg xmlns="http://www.w3.org/2000/svg" width="1200" height="960" viewBox="0 0 1200 960"><rect width="100%" height="100%" fill="#fafaf7"/><rect x="40.0" y="40.0" width="1120.0" height="880.0" fill="none" stroke="#1a1a1a" stroke-width="2"/><polygon points="40.0,40.0 160.0,40.0 160.0,695.3 40.0,695.3" fill="#e3eee3" stroke="#2a4d3a" stroke-width="1.2"/><g transform="translate(100.0,367.7)"><text text-anchor="middle" dominant-baseline="central" font-family="ui-sans-serif,system-ui" font-size="8.0" fill="#2a4d3a"><tspan x="0" dy="-0.6em">Foyer / Entry</tspan><tspan x="0" dy="1.2em" font-size="6.4" fill="#444">12.3 m²</tspan></text></g><polygon points="448.0,40.0 728.0,40.0 728.0,757.0 448.0,757.0" fill="#e3eee3" stroke="#2a4d3a" stroke-width="1.2"/><g transform="translate(588.0,398.5)"><text text-anchor="middle" dominant-baseline="central" font-family="ui-sans-serif,system-ui" font-size="8.0" fill="#2a4d3a"><tspan x="0" dy="-0.6em">Living Room</tspan><tspan x="0" dy="1.2em" font-size="6.4" fill="#444">31.4 m²</tspan></text></g><polygon points="40.0,695.3 448.0,695.3 448.0,920.0 40.0,920.0" fill="#e3eee3" stroke="#2a4d3a" stroke-width="1.2"/><g transform="translate(244.0,807.7)"><text text-anchor="middle" dominant-baseline="central" font-family="ui-sans-serif,system-ui" font-size="8.0" fill="#2a4d3a"><tspan x="0" dy="-0.6em">Kitchen</tspan><tspan x="0" dy="1.2em" font-size="6.4" fill="#444">14.3 m²</tspan></text></g><polygon points="160.0,40.0 448.0,40.0 448.0,420.5 160.0,420.5" fill="#e6e2f0" stroke="#4a3a8a" stroke-width="1.2"/><g transform="translate(304.0,230.3)"><text text-anchor="middle" dominant-baseline="central" font-family="ui-sans-serif,system-ui" font-size="8.0" fill="#4a3a8a"><tspan x="0" dy="-0.6em">Primary Bedroom</tspan><tspan x="0" dy="1.2em" font-size="6.4" fill="#444">17.1 m²</tspan></text></g><polygon points="944.0,40.0 1160.0,40.0 1160.0,776.0 944.0,776.0" fill="#e6e2f0" stroke="#4a3a8a" stroke-width="1.2"/><g transform="translate(1052.0,408.0)"><text text-anchor="middle" dominant-baseline="central" font-family="ui-sans-serif,system-ui" font-size="8.0" fill="#4a3a8a"><tspan x="0" dy="-0.6em">Bedroom 1</tspan><tspan x="0" dy="1.2em" font-size="6.4" fill="#444">24.8 m²</tspan></text></g><polygon points="160.0,420.5 448.0,420.5 448.0,695.3 160.0,695.3" fill="#e6e2f0" stroke="#4a3a8a" stroke-width="1.2"/><g transform="translate(304.0,557.9)"><text text-anchor="middle" dominant-baseline="central" font-family="ui-sans-serif,system-ui" font-size="8.0" fill="#4a3a8a"><tspan x="0" dy="-0.6em">Bedroom 2</tspan><tspan x="0" dy="1.2em" font-size="6.4" fill="#444">12.4 m²</tspan></text></g><polygon points="728.0,40.0 944.0,40.0 944.0,776.0 728.0,776.0" fill="#e6e2f0" stroke="#4a3a8a" stroke-width="1.2"/><g transform="translate(836.0,408.0)"><text text-anchor="middle" dominant-baseline="central" font-family="ui-sans-serif,system-ui" font-size="8.0" fill="#4a3a8a"><tspan x="0" dy="-0.6em">Bedroom 3</tspan><tspan x="0" dy="1.2em" font-size="6.4" fill="#444">24.8 m²</tspan></text></g><polygon points="728.0,776.0 1160.0,776.0 1160.0,920.0 728.0,920.0" fill="#f0e3d6" stroke="#8a553a" stroke-width="1.2"/><g transform="translate(944.0,848.0)"><text text-anchor="middle" dominant-baseline="central" font-family="ui-sans-serif,system-ui" font-size="8.0" fill="#8a553a"><tspan x="0" dy="-0.6em">Full Bathroom 1</tspan><tspan x="0" dy="1.2em" font-size="6.4" fill="#444">9.7 m²</tspan></text></g><polygon points="448.0,757.0 728.0,757.0 728.0,920.0 448.0,920.0" fill="#f0e3d6" stroke="#8a553a" stroke-width="1.2"/><g transform="translate(588.0,838.5)"><text text-anchor="middle" dominant-baseline="central" font-family="ui-sans-serif,system-ui" font-size="8.0" fill="#8a553a"><tspan x="0" dy="-0.6em">Full Bathroom 2</tspan><tspan x="0" dy="1.2em" font-size="6.4" fill="#444">7.1 m²</tspan></text></g><text x="40.0" y="20.0" font-family="ui-sans-serif,system-ui" font-size="14" fill="#1a1a1a">Step 4.2 random feasible tree · seed 2 · 14000x11000</text></svg>