<svg xmlns="http://www.w3.org/2000/svg" width="1200" height="960" viewBox="0 0 1200 960"><rect width="100%" height="100%" fill="#fafaf7"/><rect x="40.0" y="40.0" width="1120.0" height="880.0" fill="none" stroke="#1a1a1a" stroke-width="2"/><polygon points="740.4,334.1 1160.0,334.1 1160.0,454.1 740.4,454.1" fill="#e3eee3" stroke="#2a4d3a" stroke-width="1.2"/><g transform="translate(950.2,394.1)"><text text-anchor="middle" dominant-baseline="central" font-family="ui-sans-serif,system-ui" font-size="8.0" fill="#2a4d3a"><tspan x="0" dy="-0.6em">Foyer / Entry</tspan><tspan x="0" dy="1.2em" font-size="6.4" fill="#444">7.9 m²</tspan></text></g><polygon points="530.6,454.1 915.2,454.1 915.2,920.0 530.6,920.0" fill="#e3eee3" stroke="#2a4d3a" stroke-width="1.2"/><g transform="translate(722.9,687.1)"><text text-anchor="middle" dominant-baseline="central" font-family="ui-sans-serif,system-ui" font-size="8.0" fill="#2a4d3a"><tspan x="0" dy="-0.6em">Living Room</tspan><tspan x="0" dy="1.2em" font-size="6.4" fill="#444">28.0 m²</tspan></text></g><polygon points="326.9,440.0 530.6,440.0 530.6,920.0 326.9,920.0" fill="#e3eee3" stroke="#2a4d3a" stroke-width="1.2"/><g transform="translate(428.8,680.0)"><text text-anchor="middle" dominant-baseline="central" font-family="ui-sans-serif,system-ui" font-size="8.0" fill="#2a4d3a"><tspan x="0" dy="-0.6em">Kitchen</tspan><tspan x="0" dy="1.2em" font-size="6.4" fill="#444">15.3 m²</tspan></text></g><polygon points="915.2,454.1 1160.0,454.1 1160.0,920.0 915.2,920.0" fill="#e3eee3" stroke="#2a4d3a" stroke-width="1.2"/><g transform="translate(1037.6,687.1)"><text text-anchor="middle" dominant-baseline="central" font-family="ui-sans-serif,system-ui" font-size="8.0" fill="#2a4d3a"><tspan x="0" dy="-0.6em">Dining Room</tspan><tspan x="0" dy="1.2em" font-size="6.4" fill="#444">17.8 m²</tspan></text></g><polygon points="40.0,409.0 326.9,409.0 326.9,920.0 40.0,920.0" fill="#e6e2f0" stroke="#4a3a8a" stroke-width="1.2"/><g transform="translate(183.5,664.5)"><text text-anchor="middle" dominant-baseline="central" font-family="ui-sans-serif,system-ui" font-size="8.0" fill="#4a3a8a"><tspan x="0" dy="-0.6em">Primary Bedroom</tspan><tspan x="0" dy="1.2em" font-size="6.4" fill="#444">22.9 m²</tspan></text></g><polygon points="845.3,40.0 1160.0,40.0 1160.0,334.1 845.3,334.1" fill="#e6e2f0" stroke="#4a3a8a" stroke-width="1.2"/><g transform="translate(1002.6,187.1)"><text text-anchor="middle" dominant-baseline="central" font-family="ui-sans-serif,system-ui" font-size="8.0" fill="#4a3a8a"><tspan x="0" dy="-0.6em">Bedroom 1</tspan><tspan x="0" dy="1.2em" font-size="6.4" fill="#444">14.5 m²</tspan></text></g><polygon points="40.0,40.0 326.9,40.0 326.9,409.0 40.0,409.0" fill="#e6e2f0" stroke="#4a3a8a" stroke-width="1.2"/><g transform="translate(183.5,224.5)"><text text-anchor="middle" dominant-baseline="central" font-family="ui-sans-serif,system-ui" font-size="8.0" fill="#4a3a8a"><tspan x="0" dy="-0.6em">Bedroom 2</tspan><tspan x="0" dy="1.2em" font-size="6.4" fill="#444">16.5 m²</tspan></text></g><polygon points="530.6,40.0 845.3,40.0 845.3,334.1 530.6,334.1" fill="#e6e2f0" stroke="#4a3a8a" stroke-width="1.2"/><g transform="translate(687.9,187.1)"><text text-anchor="middle" dominant-baseline="central" font-family="ui-sans-serif,system-ui" font-size="8.0" fill="#4a3a8a"><tspan x="0" dy="-0.6em">Bedroom 3</tspan><tspan x="0" dy="1.2em" font-size="6.4" fill="#444">14.5 m²</tspan></text></g><polygon points="326.9,240.0 530.6,240.0 530.6,440.0 326.9,440.0" fill="#f0e3d6" stroke="#8a553a" stroke-width="1.2"/><g transform="translate(428.8,340.0)"><text text-anchor="middle" dominant-baseline="central" font-family="ui-sans-serif,system-ui" font-size="8.0" fill="#8a553a"><tspan x="0" dy="-0.6em">Full Bathroom 1</tspan><tspan x="0" dy="1.2em" font-size="6.4" fill="#444">6.4 m²</tspan></text></g><polygon points="326.9,40.0 530.6,40.0 530.6,240.0 326.9,240.0" fill="#f0e3d6" stroke="#8a553a" stroke-width="1.2"/><g transform="translate(428.8,140.0)"><text text-anchor="middle" dominant-baseline="central" font-family="ui-sans-serif,system-ui" font-size="8.0" fill="#8a553a"><tspan x="0" dy="-0.6em">Full Bathroom 2</tspan><tspan x="0" dy="1.2em" font-size="6.4" fill="#444">6.4 m²</tspan></text></g><polygon points="530.6,334.1 740.4,334.1 740.4,454.1 530.6,454.1" fill="#f0e3d6" stroke="#8a553a" stroke-width="1.2"/><g transform="translate(635.5,394.1)"><text text-anchor="middle" dominant-baseline="central" font-family="ui-sans-serif,system-ui" font-size="8.0" fill="#8a553a"><tspan x="0" dy="-0.6em">Half Bath / Powder</tspan><tspan x="0" dy="1.2em" font-size="6.4" fill="#444">3.9 m²</tspan></text></g><text x="40.0" y="20.0" font-family="ui-sans-serif,system-ui" font-size="14" fill="#1a1a1a">Step 4.4 annealed plan · cost 13.13 · 14000x11000</text></svg>