<svg xmlns="http://www.w3.org/2000/svg" width="1200" height="960" viewBox="0 0 1200 960"><rect width="100%" height="100%" fill="#fafaf7"/><rect x="40.0" y="40.0" width="1120.0" height="880.0" fill="none" stroke="#1a1a1a" stroke-width="2"/><polygon points="368.5,256.0 488.5,256.0 488.5,584.0 368.5,584.0" fill="#e3eee3" stroke="#2a4d3a" stroke-width="1.2"/><g transform="translate(428.5,420.0)"><text text-anchor="middle" dominant-baseline="central" font-family="ui-sans-serif,system-ui" font-size="8.0" fill="#2a4d3a"><tspan x="0" dy="-0.6em">Foyer / Entry</tspan><tspan x="0" dy="1.2em" font-size="6.4" fill="#444">6.2 m²</tspan></text></g><polygon points="40.0,40.0 368.5,40.0 368.5,584.0 40.0,584.0" fill="#e3eee3" stroke="#2a4d3a" stroke-width="1.2"/><g transform="translate(204.3,312.0)"><text text-anchor="middle" dominant-baseline="central" font-family="ui-sans-serif,system-ui" font-size="8.0" fill="#2a4d3a"><tspan x="0" dy="-0.6em">Living Room</tspan><tspan x="0" dy="1.2em" font-size="6.4" fill="#444">27.9 m²</tspan></text></g><polygon points="525.3,584.0 1160.0,584.0 1160.0,776.0 525.3,776.0" fill="#e3eee3" stroke="#2a4d3a" stroke-width="1.2"/><g transform="translate(842.7,680.0)"><text text-anchor="middle" dominant-baseline="central" font-family="ui-sans-serif,system-ui" font-size="8.0" fill="#2a4d3a"><tspan x="0" dy="-0.6em">Kitchen</tspan><tspan x="0" dy="1.2em" font-size="6.4" fill="#444">19.0 m²</tspan></text></g><polygon points="488.5,256.0 758.8,256.0 758.8,584.0 488.5,584.0" fill="#e6e2f0" stroke="#4a3a8a" stroke-width="1.2"/><g transform="translate(623.7,420.0)"><text text-anchor="middle" dominant-baseline="central" font-family="ui-sans-serif,system-ui" font-size="8.0" fill="#4a3a8a"><tspan x="0" dy="-0.6em">Primary Bedroom</tspan><tspan x="0" dy="1.2em" font-size="6.4" fill="#444">13.8 m²</tspan></text></g><polygon points="40.0,584.0 525.3,584.0 525.3,920.0 40.0,920.0" fill="#e6e2f0" stroke="#4a3a8a" stroke-width="1.2"/><g transform="translate(282.7,752.0)"><text text-anchor="middle" dominant-baseline="central" font-family="ui-sans-serif,system-ui" font-size="8.0" fill="#4a3a8a"><tspan x="0" dy="-0.6em">Bedroom 1</tspan><tspan x="0" dy="1.2em" font-size="6.4" fill="#444">25.5 m²</tspan></text></g><polygon points="902.8,256.0 1160.0,256.0 1160.0,584.0 902.8,584.0" fill="#e6e2f0" stroke="#4a3a8a" stroke-width="1.2"/><g transform="translate(1031.4,420.0)"><text text-anchor="middle" dominant-baseline="central" font-family="ui-sans-serif,system-ui" font-size="8.0" fill="#4a3a8a"><tspan x="0" dy="-0.6em">Bedroom 2</tspan><tspan x="0" dy="1.2em" font-size="6.4" fill="#444">13.2 m²</tspan></text></g><polygon points="368.5,40.0 1160.0,40.0 1160.0,256.0 368.5,256.0" fill="#e6e2f0" stroke="#4a3a8a" stroke-width="1.2"/><g transform="translate(764.3,148.0)"><text text-anchor="middle" dominant-baseline="central" font-family="ui-sans-serif,system-ui" font-size="8.0" fill="#4a3a8a"><tspan x="0" dy="-0.6em">Bedroom 3</tspan><tspan x="0" dy="1.2em" font-size="6.4" fill="#444">26.7 m²</tspan></text></g><polygon points="758.8,256.0 902.8,256.0 902.8,584.0 758.8,584.0" fill="#f0e3d6" stroke="#8a553a" stroke-width="1.2"/><g transform="translate(830.8,420.0)"><text text-anchor="middle" dominant-baseline="central" font-family="ui-sans-serif,system-ui" font-size="8.0" fill="#8a553a"><tspan x="0" dy="-0.6em">Full Bathroom 1</tspan><tspan x="0" dy="1.2em" font-size="6.4" fill="#444">7.4 m²</tspan></text></g><polygon points="525.3,776.0 1160.0,776.0 1160.0,920.0 525.3,920.0" fill="#f0e3d6" stroke="#8a553a" stroke-width="1.2"/><g transform="translate(842.7,848.0)"><text text-anchor="middle" dominant-baseline="central" font-family="ui-sans-serif,system-ui" font-size="8.0" fill="#8a553a"><tspan x="0" dy="-0.6em">Full Bathroom 2</tspan><tspan x="0" dy="1.2em" font-size="6.4" fill="#444">14.3 m²</tspan></text></g><text x="40.0" y="20.0" font-family="ui-sans-serif,system-ui" font-size="14" fill="#1a1a1a">Step 4.2 random feasible tree · seed 3 · 14000x11000</text></svg>