<svg xmlns="http://www.w3.org/2000/svg" width="1200" height="960" viewBox="0 0 1200 960"><rect width="100%" height="100%" fill="#fafaf7"/><rect x="40.0" y="40.0" width="1120.0" height="880.0" fill="none" stroke="#1a1a1a" stroke-width="2"/><polygon points="40.0,40.0 874.5,40.0 874.5,160.0 40.0,160.0" fill="#e3eee3" stroke="#2a4d3a" stroke-width="1.2"/><g transform="translate(457.3,100.0)"><text text-anchor="middle" dominant-baseline="central" font-family="ui-sans-serif,system-ui" font-size="8.0" fill="#2a4d3a"><tspan x="0" dy="-0.6em">Foyer / Entry</tspan><tspan x="0" dy="1.2em" font-size="6.4" fill="#444">15.6 m²</tspan></text></g><polygon points="334.5,160.0 874.5,160.0 874.5,467.4 334.5,467.4" fill="#e3eee3" stroke="#2a4d3a" stroke-width="1.2"/><g transform="translate(604.5,313.7)"><text text-anchor="middle" dominant-baseline="central" font-family="ui-sans-serif,system-ui" font-size="8.0" fill="#2a4d3a"><tspan x="0" dy="-0.6em">Living Room</tspan><tspan x="0" dy="1.2em" font-size="6.4" fill="#444">25.9 m²</tspan></text></g><polygon points="40.0,160.0 334.5,160.0 334.5,467.4 40.0,467.4" fill="#e3eee3" stroke="#2a4d3a" stroke-width="1.2"/><g transform="translate(187.3,313.7)"><text text-anchor="middle" dominant-baseline="central" font-family="ui-sans-serif,system-ui" font-size="8.0" fill="#2a4d3a"><tspan x="0" dy="-0.6em">Kitchen</tspan><tspan x="0" dy="1.2em" font-size="6.4" fill="#444">14.1 m²</tspan></text></g><polygon points="40.0,467.4 413.3,467.4 413.3,920.0 40.0,920.0" fill="#e6e2f0" stroke="#4a3a8a" stroke-width="1.2"/><g transform="translate(226.7,693.7)"><text text-anchor="middle" dominant-baseline="central" font-family="ui-sans-serif,system-ui" font-size="8.0" fill="#4a3a8a"><tspan x="0" dy="-0.6em">Primary Bedroom</tspan><tspan x="0" dy="1.2em" font-size="6.4" fill="#444">26.4 m²</tspan></text></g><polygon points="683.0,467.4 1160.0,467.4 1160.0,723.2 683.0,723.2" fill="#e6e2f0" stroke="#4a3a8a" stroke-width="1.2"/><g transform="translate(921.5,595.3)"><text text-anchor="middle" dominant-baseline="central" font-family="ui-sans-serif,system-ui" font-size="8.0" fill="#4a3a8a"><tspan x="0" dy="-0.6em">Bedroom 1</tspan><tspan x="0" dy="1.2em" font-size="6.4" fill="#444">19.1 m²</tspan></text></g><polygon points="413.3,467.4 683.0,467.4 683.0,920.0 413.3,920.0" fill="#e6e2f0" stroke="#4a3a8a" stroke-width="1.2"/><g transform="translate(548.1,693.7)"><text text-anchor="middle" dominant-baseline="central" font-family="ui-sans-serif,system-ui" font-size="8.0" fill="#4a3a8a"><tspan x="0" dy="-0.6em">Bedroom 2</tspan><tspan x="0" dy="1.2em" font-size="6.4" fill="#444">19.1 m²</tspan></text></g><polygon points="874.5,40.0 1160.0,40.0 1160.0,467.4 874.5,467.4" fill="#e6e2f0" stroke="#4a3a8a" stroke-width="1.2"/><g transform="translate(1017.3,253.7)"><text text-anchor="middle" dominant-baseline="central" font-family="ui-sans-serif,system-ui" font-size="8.0" fill="#4a3a8a"><tspan x="0" dy="-0.6em">Bedroom 3</tspan><tspan x="0" dy="1.2em" font-size="6.4" fill="#444">19.1 m²</tspan></text></g><polygon points="921.5,723.2 1160.0,723.2 1160.0,920.0 921.5,920.0" fill="#f0e3d6" stroke="#8a553a" stroke-width="1.2"/><g transform="translate(1040.7,821.6)"><text text-anchor="middle" dominant-baseline="central" font-family="ui-sans-serif,system-ui" font-size="8.0" fill="#8a553a"><tspan x="0" dy="-0.6em">Full Bathroom 1</tspan><tspan x="0" dy="1.2em" font-size="6.4" fill="#444">7.3 m²</tspan></text></g><polygon points="683.0,723.2 921.5,723.2 921.5,920.0 683.0,920.0" fill="#f0e3d6" stroke="#8a553a" stroke-width="1.2"/><g transform="translate(802.2,821.6)"><text text-anchor="middle" dominant-baseline="central" font-family="ui-sans-serif,system-ui" font-size="8.0" fill="#8a553a"><tspan x="0" dy="-0.6em">Full Bathroom 2</tspan><tspan x="0" dy="1.2em" font-size="6.4" fill="#444">7.3 m²</tspan></text></g><text x="40.0" y="20.0" font-family="ui-sans-serif,system-ui" font-size="14" fill="#1a1a1a">Step 4.2 random feasible tree · seed 4 · 14000x11000</text></svg>