<svg xmlns="http://www.w3.org/2000/svg" width="1200" height="960" viewBox="0 0 1200 960"><rect width="100%" height="100%" fill="#fafaf7"/><rect x="40.0" y="40.0" width="1120.0" height="880.0" fill="none" stroke="#1a1a1a" stroke-width="2"/><polygon points="40.0,637.3 160.0,637.3 160.0,920.0 40.0,920.0" fill="#e3eee3" stroke="#2a4d3a" stroke-width="1.2"/><g transform="translate(100.0,778.7)"><text text-anchor="middle" dominant-baseline="central" font-family="ui-sans-serif,system-ui" font-size="8.0" fill="#2a4d3a"><tspan x="0" dy="-0.6em">Foyer / Entry</tspan><tspan x="0" dy="1.2em" font-size="6.4" fill="#444">5.3 m²</tspan></text></g><polygon points="537.8,496.0 928.9,496.0 928.9,920.0 537.8,920.0" fill="#e3eee3" stroke="#2a4d3a" stroke-width="1.2"/><g transform="translate(733.3,708.0)"><text text-anchor="middle" dominant-baseline="central" font-family="ui-sans-serif,system-ui" font-size="8.0" fill="#2a4d3a"><tspan x="0" dy="-0.6em">Living Room</tspan><tspan x="0" dy="1.2em" font-size="6.4" fill="#444">25.9 m²</tspan></text></g><polygon points="160.0,688.7 537.8,688.7 537.8,920.0 160.0,920.0" fill="#e3eee3" stroke="#2a4d3a" stroke-width="1.2"/><g transform="translate(348.9,804.4)"><text text-anchor="middle" dominant-baseline="central" font-family="ui-sans-serif,system-ui" font-size="8.0" fill="#2a4d3a"><tspan x="0" dy="-0.6em">Kitchen</tspan><tspan x="0" dy="1.2em" font-size="6.4" fill="#444">13.7 m²</tspan></text></g><polygon points="40.0,256.0 561.4,256.0 561.4,496.0 40.0,496.0" fill="#e3eee3" stroke="#2a4d3a" stroke-width="1.2"/><g transform="translate(300.7,376.0)"><text text-anchor="middle" dominant-baseline="central" font-family="ui-sans-serif,system-ui" font-size="8.0" fill="#2a4d3a"><tspan x="0" dy="-0.6em">Dining Room</tspan><tspan x="0" dy="1.2em" font-size="6.4" fill="#444">19.6 m²</tspan></text></g><polygon points="812.4,40.0 1160.0,40.0 1160.0,496.0 812.4,496.0" fill="#e6e2f0" stroke="#4a3a8a" stroke-width="1.2"/><g transform="translate(986.2,268.0)"><text text-anchor="middle" dominant-baseline="central" font-family="ui-sans-serif,system-ui" font-size="8.0" fill="#4a3a8a"><tspan x="0" dy="-0.6em">Primary Bedroom</tspan><tspan x="0" dy="1.2em" font-size="6.4" fill="#444">24.8 m²</tspan></text></g><polygon points="928.9,496.0 1160.0,496.0 1160.0,920.0 928.9,920.0" fill="#e6e2f0" stroke="#4a3a8a" stroke-width="1.2"/><g transform="translate(1044.4,708.0)"><text text-anchor="middle" dominant-baseline="central" font-family="ui-sans-serif,system-ui" font-size="8.0" fill="#4a3a8a"><tspan x="0" dy="-0.6em">Bedroom 1</tspan><tspan x="0" dy="1.2em" font-size="6.4" fill="#444">15.3 m²</tspan></text></g><polygon points="40.0,40.0 561.4,40.0 561.4,256.0 40.0,256.0" fill="#e6e2f0" stroke="#4a3a8a" stroke-width="1.2"/><g transform="translate(300.7,148.0)"><text text-anchor="middle" dominant-baseline="central" font-family="ui-sans-serif,system-ui" font-size="8.0" fill="#4a3a8a"><tspan x="0" dy="-0.6em">Bedroom 2</tspan><tspan x="0" dy="1.2em" font-size="6.4" fill="#444">17.6 m²</tspan></text></g><polygon points="561.4,40.0 812.4,40.0 812.4,496.0 561.4,496.0" fill="#e6e2f0" stroke="#4a3a8a" stroke-width="1.2"/><g transform="translate(686.9,268.0)"><text text-anchor="middle" dominant-baseline="central" font-family="ui-sans-serif,system-ui" font-size="8.0" fill="#4a3a8a"><tspan x="0" dy="-0.6em">Bedroom 3</tspan><tspan x="0" dy="1.2em" font-size="6.4" fill="#444">17.9 m²</tspan></text></g><polygon points="348.9,496.0 537.8,496.0 537.8,688.7 348.9,688.7" fill="#f0e3d6" stroke="#8a553a" stroke-width="1.2"/><g transform="translate(443.3,592.4)"><text text-anchor="middle" dominant-baseline="central" font-family="ui-sans-serif,system-ui" font-size="8.0" fill="#8a553a"><tspan x="0" dy="-0.6em">Full Bathroom 1</tspan><tspan x="0" dy="1.2em" font-size="6.4" fill="#444">5.7 m²</tspan></text></g><polygon points="160.0,496.0 348.9,496.0 348.9,688.7 160.0,688.7" fill="#f0e3d6" stroke="#8a553a" stroke-width="1.2"/><g transform="translate(254.4,592.4)"><text text-anchor="middle" dominant-baseline="central" font-family="ui-sans-serif,system-ui" font-size="8.0" fill="#8a553a"><tspan x="0" dy="-0.6em">Full Bathroom 2</tspan><tspan x="0" dy="1.2em" font-size="6.4" fill="#444">5.7 m²</tspan></text></g><polygon points="40.0,496.0 160.0,496.0 160.0,637.3 40.0,637.3" fill="#f0e3d6" stroke="#8a553a" stroke-width="1.2"/><g transform="translate(100.0,566.7)"><text text-anchor="middle" dominant-baseline="central" font-family="ui-sans-serif,system-ui" font-size="8.0" fill="#8a553a"><tspan x="0" dy="-0.6em">Half Bath / Powder</tspan><tspan x="0" dy="1.2em" font-size="6.4" fill="#444">2.6 m²</tspan></text></g><text x="40.0" y="20.0" font-family="ui-sans-serif,system-ui" font-size="14" fill="#1a1a1a">Step 4.4 annealed plan · cost 4.17 · 14000x11000</text></svg>