<svg xmlns="http://www.w3.org/2000/svg" width="1200" height="960" viewBox="0 0 1200 960"><rect width="100%" height="100%" fill="#fafaf7"/><rect x="40.0" y="40.0" width="1120.0" height="880.0" fill="none" stroke="#1a1a1a" stroke-width="2"/><polygon points="880.0,40.0 1160.0,40.0 1160.0,175.4 880.0,175.4" fill="#e3eee3" stroke="#2a4d3a" stroke-width="1.2"/><g transform="translate(1020.0,107.7)"><text text-anchor="middle" dominant-baseline="central" font-family="ui-sans-serif,system-ui" font-size="8.0" fill="#2a4d3a"><tspan x="0" dy="-0.6em">Foyer / Entry</tspan><tspan x="0" dy="1.2em" font-size="6.4" fill="#444">5.9 m²</tspan></text></g><polygon points="880.0,175.4 1160.0,175.4 1160.0,920.0 880.0,920.0" fill="#e3eee3" stroke="#2a4d3a" stroke-width="1.2"/><g transform="translate(1020.0,547.7)"><text text-anchor="middle" dominant-baseline="central" font-family="ui-sans-serif,system-ui" font-size="8.0" fill="#2a4d3a"><tspan x="0" dy="-0.6em">Living Room</tspan><tspan x="0" dy="1.2em" font-size="6.4" fill="#444">32.6 m²</tspan></text></g><polygon points="621.5,40.0 880.0,40.0 880.0,401.3 621.5,401.3" fill="#e3eee3" stroke="#2a4d3a" stroke-width="1.2"/><g transform="translate(750.8,220.6)"><text text-anchor="middle" dominant-baseline="central" font-family="ui-sans-serif,system-ui" font-size="8.0" fill="#2a4d3a"><tspan x="0" dy="-0.6em">Kitchen</tspan><tspan x="0" dy="1.2em" font-size="6.4" fill="#444">14.6 m²</tspan></text></g><polygon points="320.0,40.0 621.5,40.0 621.5,401.3 320.0,401.3" fill="#e3eee3" stroke="#2a4d3a" stroke-width="1.2"/><g transform="translate(470.8,220.6)"><text text-anchor="middle" dominant-baseline="central" font-family="ui-sans-serif,system-ui" font-size="8.0" fill="#2a4d3a"><tspan x="0" dy="-0.6em">Dining Room</tspan><tspan x="0" dy="1.2em" font-size="6.4" fill="#444">17.0 m²</tspan></text></g><polygon points="409.3,545.3 736.0,545.3 736.0,920.0 409.3,920.0" fill="#e6e2f0" stroke="#4a3a8a" stroke-width="1.2"/><g transform="translate(572.7,732.6)"><text text-anchor="middle" dominant-baseline="central" font-family="ui-sans-serif,system-ui" font-size="8.0" fill="#4a3a8a"><tspan x="0" dy="-0.6em">Primary Bedroom</tspan><tspan x="0" dy="1.2em" font-size="6.4" fill="#444">19.1 m²</tspan></text></g><polygon points="40.0,40.0 320.0,40.0 320.0,401.3 40.0,401.3" fill="#e6e2f0" stroke="#4a3a8a" stroke-width="1.2"/><g transform="translate(180.0,220.6)"><text text-anchor="middle" dominant-baseline="central" font-family="ui-sans-serif,system-ui" font-size="8.0" fill="#4a3a8a"><tspan x="0" dy="-0.6em">Bedroom 1</tspan><tspan x="0" dy="1.2em" font-size="6.4" fill="#444">15.8 m²</tspan></text></g><polygon points="40.0,401.3 409.3,401.3 409.3,660.6 40.0,660.6" fill="#e6e2f0" stroke="#4a3a8a" stroke-width="1.2"/><g transform="translate(224.7,530.9)"><text text-anchor="middle" dominant-baseline="central" font-family="ui-sans-serif,system-ui" font-size="8.0" fill="#4a3a8a"><tspan x="0" dy="-0.6em">Bedroom 2</tspan><tspan x="0" dy="1.2em" font-size="6.4" fill="#444">15.0 m²</tspan></text></g><polygon points="40.0,660.6 409.3,660.6 409.3,920.0 40.0,920.0" fill="#e6e2f0" stroke="#4a3a8a" stroke-width="1.2"/><g transform="translate(224.7,790.3)"><text text-anchor="middle" dominant-baseline="central" font-family="ui-sans-serif,system-ui" font-size="8.0" fill="#4a3a8a"><tspan x="0" dy="-0.6em">Bedroom 3</tspan><tspan x="0" dy="1.2em" font-size="6.4" fill="#444">15.0 m²</tspan></text></g><polygon points="736.0,401.3 880.0,401.3 880.0,771.8 736.0,771.8" fill="#f0e3d6" stroke="#8a553a" stroke-width="1.2"/><g transform="translate(808.0,586.5)"><text text-anchor="middle" dominant-baseline="central" font-family="ui-sans-serif,system-ui" font-size="8.0" fill="#8a553a"><tspan x="0" dy="-0.6em">Full Bathroom 1</tspan><tspan x="0" dy="1.2em" font-size="6.4" fill="#444">8.3 m²</tspan></text></g><polygon points="409.3,401.3 736.0,401.3 736.0,545.3 409.3,545.3" fill="#f0e3d6" stroke="#8a553a" stroke-width="1.2"/><g transform="translate(572.7,473.3)"><text text-anchor="middle" dominant-baseline="central" font-family="ui-sans-serif,system-ui" font-size="8.0" fill="#8a553a"><tspan x="0" dy="-0.6em">Full Bathroom 2</tspan><tspan x="0" dy="1.2em" font-size="6.4" fill="#444">7.4 m²</tspan></text></g><polygon points="736.0,771.8 880.0,771.8 880.0,920.0 736.0,920.0" fill="#f0e3d6" stroke="#8a553a" stroke-width="1.2"/><g transform="translate(808.0,845.9)"><text text-anchor="middle" dominant-baseline="central" font-family="ui-sans-serif,system-ui" font-size="8.0" fill="#8a553a"><tspan x="0" dy="-0.6em">Half Bath / Powder</tspan><tspan x="0" dy="1.2em" font-size="6.4" fill="#444">3.3 m²</tspan></text></g><text x="40.0" y="20.0" font-family="ui-sans-serif,system-ui" font-size="14" fill="#1a1a1a">Step 4.4 annealed plan · cost 14.27 · 14000x11000</text></svg>