<svg xmlns="http://www.w3.org/2000/svg" width="1200" height="960" viewBox="0 0 1200 960"><rect width="100%" height="100%" fill="#fafaf7"/><rect x="40.0" y="40.0" width="1120.0" height="880.0" fill="none" stroke="#1a1a1a" stroke-width="2"/><polygon points="40.0,320.0 272.0,320.0 272.0,464.0 40.0,464.0" fill="#e3eee3" stroke="#2a4d3a" stroke-width="1.2"/><g transform="translate(156.0,392.0)"><text text-anchor="middle" dominant-baseline="central" font-family="ui-sans-serif,system-ui" font-size="8.0" fill="#2a4d3a"><tspan x="0" dy="-0.6em">Foyer / Entry</tspan><tspan x="0" dy="1.2em" font-size="6.4" fill="#444">5.2 m²</tspan></text></g><polygon points="40.0,40.0 728.0,40.0 728.0,320.0 40.0,320.0" fill="#e3eee3" stroke="#2a4d3a" stroke-width="1.2"/><g transform="translate(384.0,180.0)"><text text-anchor="middle" dominant-baseline="central" font-family="ui-sans-serif,system-ui" font-size="8.0" fill="#2a4d3a"><tspan x="0" dy="-0.6em">Living Room</tspan><tspan x="0" dy="1.2em" font-size="6.4" fill="#444">30.1 m²</tspan></text></g><polygon points="880.0,568.0 1160.0,568.0 1160.0,920.0 880.0,920.0" fill="#e3eee3" stroke="#2a4d3a" stroke-width="1.2"/><g transform="translate(1020.0,744.0)"><text text-anchor="middle" dominant-baseline="central" font-family="ui-sans-serif,system-ui" font-size="8.0" fill="#2a4d3a"><tspan x="0" dy="-0.6em">Kitchen</tspan><tspan x="0" dy="1.2em" font-size="6.4" fill="#444">15.4 m²</tspan></text></g><polygon points="728.0,40.0 1160.0,40.0 1160.0,320.0 728.0,320.0" fill="#e3eee3" stroke="#2a4d3a" stroke-width="1.2"/><g transform="translate(944.0,180.0)"><text text-anchor="middle" dominant-baseline="central" font-family="ui-sans-serif,system-ui" font-size="8.0" fill="#2a4d3a"><tspan x="0" dy="-0.6em">Dining Room</tspan><tspan x="0" dy="1.2em" font-size="6.4" fill="#444">18.9 m²</tspan></text></g><polygon points="272.0,464.0 576.0,464.0 576.0,920.0 272.0,920.0" fill="#e6e2f0" stroke="#4a3a8a" stroke-width="1.2"/><g transform="translate(424.0,692.0)"><text text-anchor="middle" dominant-baseline="central" font-family="ui-sans-serif,system-ui" font-size="8.0" fill="#4a3a8a"><tspan x="0" dy="-0.6em">Primary Bedroom</tspan><tspan x="0" dy="1.2em" font-size="6.4" fill="#444">21.7 m²</tspan></text></g><polygon points="40.0,464.0 272.0,464.0 272.0,920.0 40.0,920.0" fill="#e6e2f0" stroke="#4a3a8a" stroke-width="1.2"/><g transform="translate(156.0,692.0)"><text text-anchor="middle" dominant-baseline="central" font-family="ui-sans-serif,system-ui" font-size="8.0" fill="#4a3a8a"><tspan x="0" dy="-0.6em">Bedroom 1</tspan><tspan x="0" dy="1.2em" font-size="6.4" fill="#444">16.5 m²</tspan></text></g><polygon points="576.0,568.0 880.0,568.0 880.0,920.0 576.0,920.0" fill="#e6e2f0" stroke="#4a3a8a" stroke-width="1.2"/><g transform="translate(728.0,744.0)"><text text-anchor="middle" dominant-baseline="central" font-family="ui-sans-serif,system-ui" font-size="8.0" fill="#4a3a8a"><tspan x="0" dy="-0.6em">Bedroom 2</tspan><tspan x="0" dy="1.2em" font-size="6.4" fill="#444">16.7 m²</tspan></text></g><polygon points="744.0,320.0 1160.0,320.0 1160.0,568.0 744.0,568.0" fill="#e6e2f0" stroke="#4a3a8a" stroke-width="1.2"/><g transform="translate(952.0,444.0)"><text text-anchor="middle" dominant-baseline="central" font-family="ui-sans-serif,system-ui" font-size="8.0" fill="#4a3a8a"><tspan x="0" dy="-0.6em">Bedroom 3</tspan><tspan x="0" dy="1.2em" font-size="6.4" fill="#444">16.1 m²</tspan></text></g><polygon points="272.0,320.0 576.0,320.0 576.0,464.0 272.0,464.0" fill="#f0e3d6" stroke="#8a553a" stroke-width="1.2"/><g transform="translate(424.0,392.0)"><text text-anchor="middle" dominant-baseline="central" font-family="ui-sans-serif,system-ui" font-size="8.0" fill="#8a553a"><tspan x="0" dy="-0.6em">Full Bathroom 1</tspan><tspan x="0" dy="1.2em" font-size="6.4" fill="#444">6.8 m²</tspan></text></g><polygon points="576.0,320.0 744.0,320.0 744.0,568.0 576.0,568.0" fill="#f0e3d6" stroke="#8a553a" stroke-width="1.2"/><g transform="translate(660.0,444.0)"><text text-anchor="middle" dominant-baseline="central" font-family="ui-sans-serif,system-ui" font-size="8.0" fill="#8a553a"><tspan x="0" dy="-0.6em">Full Bathroom 2</tspan><tspan x="0" dy="1.2em" font-size="6.4" fill="#444">6.5 m²</tspan></text></g><text x="40.0" y="20.0" font-family="ui-sans-serif,system-ui" font-size="14" fill="#1a1a1a">Step 4.5 finished plan · cost 5.25</text></svg>