<svg xmlns="http://www.w3.org/2000/svg" width="1200" height="960" viewBox="0 0 1200 960"><rect width="100%" height="100%" fill="#fafaf7"/><rect x="40.0" y="40.0" width="1120.0" height="880.0" fill="none" stroke="#1a1a1a" stroke-width="2"/><polygon points="725.0,764.4 919.0,764.4 919.0,920.0 725.0,920.0" fill="#e3eee3" stroke="#2a4d3a" stroke-width="1.2"/><g transform="translate(822.0,842.2)"><text text-anchor="middle" dominant-baseline="central" font-family="ui-sans-serif,system-ui" font-size="8.0" fill="#2a4d3a"><tspan x="0" dy="-0.6em">Foyer / Entry</tspan><tspan x="0" dy="1.2em" font-size="6.4" fill="#444">4.7 m²</tspan></text></g><polygon points="40.0,640.0 725.0,640.0 725.0,920.0 40.0,920.0" fill="#e3eee3" stroke="#2a4d3a" stroke-width="1.2"/><g transform="translate(382.5,780.0)"><text text-anchor="middle" dominant-baseline="central" font-family="ui-sans-serif,system-ui" font-size="8.0" fill="#2a4d3a"><tspan x="0" dy="-0.6em">Living Room</tspan><tspan x="0" dy="1.2em" font-size="6.4" fill="#444">30.0 m²</tspan></text></g><polygon points="408.8,340.0 725.0,340.0 725.0,640.0 408.8,640.0" fill="#e3eee3" stroke="#2a4d3a" stroke-width="1.2"/><g transform="translate(566.9,490.0)"><text text-anchor="middle" dominant-baseline="central" font-family="ui-sans-serif,system-ui" font-size="8.0" fill="#2a4d3a"><tspan x="0" dy="-0.6em">Kitchen</tspan><tspan x="0" dy="1.2em" font-size="6.4" fill="#444">14.8 m²</tspan></text></g><polygon points="40.0,340.0 408.8,340.0 408.8,640.0 40.0,640.0" fill="#e3eee3" stroke="#2a4d3a" stroke-width="1.2"/><g transform="translate(224.4,490.0)"><text text-anchor="middle" dominant-baseline="central" font-family="ui-sans-serif,system-ui" font-size="8.0" fill="#2a4d3a"><tspan x="0" dy="-0.6em">Dining Room</tspan><tspan x="0" dy="1.2em" font-size="6.4" fill="#444">17.3 m²</tspan></text></g><polygon points="725.0,283.4 1160.0,283.4 1160.0,620.4 725.0,620.4" fill="#e6e2f0" stroke="#4a3a8a" stroke-width="1.2"/><g transform="translate(942.5,451.9)"><text text-anchor="middle" dominant-baseline="central" font-family="ui-sans-serif,system-ui" font-size="8.0" fill="#4a3a8a"><tspan x="0" dy="-0.6em">Primary Bedroom</tspan><tspan x="0" dy="1.2em" font-size="6.4" fill="#444">22.9 m²</tspan></text></g><polygon points="725.0,40.0 1160.0,40.0 1160.0,283.4 725.0,283.4" fill="#e6e2f0" stroke="#4a3a8a" stroke-width="1.2"/><g transform="translate(942.5,161.7)"><text text-anchor="middle" dominant-baseline="central" font-family="ui-sans-serif,system-ui" font-size="8.0" fill="#4a3a8a"><tspan x="0" dy="-0.6em">Bedroom 1</tspan><tspan x="0" dy="1.2em" font-size="6.4" fill="#444">16.5 m²</tspan></text></g><polygon points="382.5,40.0 725.0,40.0 725.0,340.0 382.5,340.0" fill="#e6e2f0" stroke="#4a3a8a" stroke-width="1.2"/><g transform="translate(553.7,190.0)"><text text-anchor="middle" dominant-baseline="central" font-family="ui-sans-serif,system-ui" font-size="8.0" fill="#4a3a8a"><tspan x="0" dy="-0.6em">Bedroom 2</tspan><tspan x="0" dy="1.2em" font-size="6.4" fill="#444">16.1 m²</tspan></text></g><polygon points="40.0,40.0 382.5,40.0 382.5,340.0 40.0,340.0" fill="#e6e2f0" stroke="#4a3a8a" stroke-width="1.2"/><g transform="translate(211.2,190.0)"><text text-anchor="middle" dominant-baseline="central" font-family="ui-sans-serif,system-ui" font-size="8.0" fill="#4a3a8a"><tspan x="0" dy="-0.6em">Bedroom 3</tspan><tspan x="0" dy="1.2em" font-size="6.4" fill="#444">16.1 m²</tspan></text></g><polygon points="1016.0,620.4 1160.0,620.4 1160.0,920.0 1016.0,920.0" fill="#f0e3d6" stroke="#8a553a" stroke-width="1.2"/><g transform="translate(1088.0,770.2)"><text text-anchor="middle" dominant-baseline="central" font-family="ui-sans-serif,system-ui" font-size="8.0" fill="#8a553a"><tspan x="0" dy="-0.6em">Full Bathroom 1</tspan><tspan x="0" dy="1.2em" font-size="6.4" fill="#444">6.7 m²</tspan></text></g><polygon points="725.0,620.4 1016.0,620.4 1016.0,764.4 725.0,764.4" fill="#f0e3d6" stroke="#8a553a" stroke-width="1.2"/><g transform="translate(870.5,692.4)"><text text-anchor="middle" dominant-baseline="central" font-family="ui-sans-serif,system-ui" font-size="8.0" fill="#8a553a"><tspan x="0" dy="-0.6em">Full Bathroom 2</tspan><tspan x="0" dy="1.2em" font-size="6.4" fill="#444">6.5 m²</tspan></text></g><polygon points="919.0,764.4 1016.0,764.4 1016.0,920.0 919.0,920.0" fill="#f0e3d6" stroke="#8a553a" stroke-width="1.2"/><g transform="translate(967.5,842.2)"><text text-anchor="middle" dominant-baseline="central" font-family="ui-sans-serif,system-ui" font-size="8.0" fill="#8a553a"><tspan x="0" dy="-0.6em">Half Bath / Powder</tspan><tspan x="0" dy="1.2em" font-size="6.4" fill="#444">2.4 m²</tspan></text></g><text x="40.0" y="20.0" font-family="ui-sans-serif,system-ui" font-size="14" fill="#1a1a1a">Step 4.4 annealed plan · cost 1.78 · 14000x11000</text></svg>