<svg xmlns="http://www.w3.org/2000/svg" width="1200" height="960" viewBox="0 0 1200 960"><rect width="100%" height="100%" fill="#fafaf7"/><rect x="40.0" y="40.0" width="1120.0" height="880.0" fill="none" stroke="#1a1a1a" stroke-width="2"/><polygon points="1016.0,40.0 1160.0,40.0 1160.0,280.0 1016.0,280.0" fill="#e3eee3" stroke="#2a4d3a" stroke-width="1.2"/><g transform="translate(1088.0,160.0)"><text text-anchor="middle" dominant-baseline="central" font-family="ui-sans-serif,system-ui" font-size="8.0" fill="#2a4d3a"><tspan x="0" dy="-0.6em">Foyer / Entry</tspan><tspan x="0" dy="1.2em" font-size="6.4" fill="#444">5.4 m²</tspan></text></g><polygon points="40.0,40.0 512.0,40.0 512.0,472.0 40.0,472.0" fill="#e3eee3" stroke="#2a4d3a" stroke-width="1.2"/><g transform="translate(276.0,256.0)"><text text-anchor="middle" dominant-baseline="central" font-family="ui-sans-serif,system-ui" font-size="8.0" fill="#2a4d3a"><tspan x="0" dy="-0.6em">Living Room</tspan><tspan x="0" dy="1.2em" font-size="6.4" fill="#444">31.9 m²</tspan></text></g><polygon points="512.0,280.0 1160.0,280.0 1160.0,472.0 512.0,472.0" fill="#e3eee3" stroke="#2a4d3a" stroke-width="1.2"/><g transform="translate(836.0,376.0)"><text text-anchor="middle" dominant-baseline="central" font-family="ui-sans-serif,system-ui" font-size="8.0" fill="#2a4d3a"><tspan x="0" dy="-0.6em">Kitchen</tspan><tspan x="0" dy="1.2em" font-size="6.4" fill="#444">19.4 m²</tspan></text></g><polygon points="512.0,40.0 1016.0,40.0 1016.0,280.0 512.0,280.0" fill="#e3eee3" stroke="#2a4d3a" stroke-width="1.2"/><g transform="translate(764.0,160.0)"><text text-anchor="middle" dominant-baseline="central" font-family="ui-sans-serif,system-ui" font-size="8.0" fill="#2a4d3a"><tspan x="0" dy="-0.6em">Dining Room</tspan><tspan x="0" dy="1.2em" font-size="6.4" fill="#444">18.9 m²</tspan></text></g><polygon points="40.0,472.0 344.0,472.0 344.0,920.0 40.0,920.0" fill="#e6e2f0" stroke="#4a3a8a" stroke-width="1.2"/><g transform="translate(192.0,696.0)"><text text-anchor="middle" dominant-baseline="central" font-family="ui-sans-serif,system-ui" font-size="8.0" fill="#4a3a8a"><tspan x="0" dy="-0.6em">Primary Bedroom</tspan><tspan x="0" dy="1.2em" font-size="6.4" fill="#444">21.3 m²</tspan></text></g><polygon points="728.0,472.0 1160.0,472.0 1160.0,696.0 728.0,696.0" fill="#e6e2f0" stroke="#4a3a8a" stroke-width="1.2"/><g transform="translate(944.0,584.0)"><text text-anchor="middle" dominant-baseline="central" font-family="ui-sans-serif,system-ui" font-size="8.0" fill="#4a3a8a"><tspan x="0" dy="-0.6em">Bedroom 1</tspan><tspan x="0" dy="1.2em" font-size="6.4" fill="#444">15.1 m²</tspan></text></g><polygon points="728.0,696.0 1160.0,696.0 1160.0,920.0 728.0,920.0" fill="#e6e2f0" stroke="#4a3a8a" stroke-width="1.2"/><g transform="translate(944.0,808.0)"><text text-anchor="middle" dominant-baseline="central" font-family="ui-sans-serif,system-ui" font-size="8.0" fill="#4a3a8a"><tspan x="0" dy="-0.6em">Bedroom 2</tspan><tspan x="0" dy="1.2em" font-size="6.4" fill="#444">15.1 m²</tspan></text></g><polygon points="512.0,472.0 728.0,472.0 728.0,920.0 512.0,920.0" fill="#e6e2f0" stroke="#4a3a8a" stroke-width="1.2"/><g transform="translate(620.0,696.0)"><text text-anchor="middle" dominant-baseline="central" font-family="ui-sans-serif,system-ui" font-size="8.0" fill="#4a3a8a"><tspan x="0" dy="-0.6em">Bedroom 3</tspan><tspan x="0" dy="1.2em" font-size="6.4" fill="#444">15.1 m²</tspan></text></g><polygon points="344.0,696.0 512.0,696.0 512.0,920.0 344.0,920.0" fill="#f0e3d6" stroke="#8a553a" stroke-width="1.2"/><g transform="translate(428.0,808.0)"><text text-anchor="middle" dominant-baseline="central" font-family="ui-sans-serif,system-ui" font-size="8.0" fill="#8a553a"><tspan x="0" dy="-0.6em">Full Bathroom 1</tspan><tspan x="0" dy="1.2em" font-size="6.4" fill="#444">5.9 m²</tspan></text></g><polygon points="344.0,472.0 512.0,472.0 512.0,696.0 344.0,696.0" fill="#f0e3d6" stroke="#8a553a" stroke-width="1.2"/><g transform="translate(428.0,584.0)"><text text-anchor="middle" dominant-baseline="central" font-family="ui-sans-serif,system-ui" font-size="8.0" fill="#8a553a"><tspan x="0" dy="-0.6em">Full Bathroom 2</tspan><tspan x="0" dy="1.2em" font-size="6.4" fill="#444">5.9 m²</tspan></text></g><text x="40.0" y="20.0" font-family="ui-sans-serif,system-ui" font-size="14" fill="#1a1a1a">Step 4.5 finished plan · cost 7.84</text></svg>