<svg xmlns="http://www.w3.org/2000/svg" width="1200" height="960" viewBox="0 0 1200 960"><rect width="100%" height="100%" fill="#fafaf7"/><rect x="40.0" y="40.0" width="1120.0" height="880.0" fill="none" stroke="#1a1a1a" stroke-width="2"/><polygon points="1040.0,184.0 1160.0,184.0 1160.0,482.7 1040.0,482.7" fill="#e3eee3" stroke="#2a4d3a" stroke-width="1.2"/><g transform="translate(1100.0,333.3)"><text text-anchor="middle" dominant-baseline="central" font-family="ui-sans-serif,system-ui" font-size="8.0" fill="#2a4d3a"><tspan x="0" dy="-0.6em">Foyer / Entry</tspan><tspan x="0" dy="1.2em" font-size="6.4" fill="#444">5.6 m²</tspan></text></g><polygon points="456.0,626.7 1160.0,626.7 1160.0,920.0 456.0,920.0" fill="#e3eee3" stroke="#2a4d3a" stroke-width="1.2"/><g transform="translate(808.0,773.3)"><text text-anchor="middle" dominant-baseline="central" font-family="ui-sans-serif,system-ui" font-size="8.0" fill="#2a4d3a"><tspan x="0" dy="-0.6em">Living Room</tspan><tspan x="0" dy="1.2em" font-size="6.4" fill="#444">32.3 m²</tspan></text></g><polygon points="40.0,40.0 694.8,40.0 694.8,232.0 40.0,232.0" fill="#e3eee3" stroke="#2a4d3a" stroke-width="1.2"/><g transform="translate(367.4,136.0)"><text text-anchor="middle" dominant-baseline="central" font-family="ui-sans-serif,system-ui" font-size="8.0" fill="#2a4d3a"><tspan x="0" dy="-0.6em">Kitchen</tspan><tspan x="0" dy="1.2em" font-size="6.4" fill="#444">19.6 m²</tspan></text></g><polygon points="694.8,184.0 1040.0,184.0 1040.0,482.7 694.8,482.7" fill="#e6e2f0" stroke="#4a3a8a" stroke-width="1.2"/><g transform="translate(867.4,333.3)"><text text-anchor="middle" dominant-baseline="central" font-family="ui-sans-serif,system-ui" font-size="8.0" fill="#4a3a8a"><tspan x="0" dy="-0.6em">Primary Bedroom</tspan><tspan x="0" dy="1.2em" font-size="6.4" fill="#444">16.1 m²</tspan></text></g><polygon points="40.0,232.0 367.4,232.0 367.4,482.7 40.0,482.7" fill="#e6e2f0" stroke="#4a3a8a" stroke-width="1.2"/><g transform="translate(203.7,357.3)"><text text-anchor="middle" dominant-baseline="central" font-family="ui-sans-serif,system-ui" font-size="8.0" fill="#4a3a8a"><tspan x="0" dy="-0.6em">Bedroom 1</tspan><tspan x="0" dy="1.2em" font-size="6.4" fill="#444">12.8 m²</tspan></text></g><polygon points="367.4,232.0 694.8,232.0 694.8,482.7 367.4,482.7" fill="#e6e2f0" stroke="#4a3a8a" stroke-width="1.2"/><g transform="translate(531.1,357.3)"><text text-anchor="middle" dominant-baseline="central" font-family="ui-sans-serif,system-ui" font-size="8.0" fill="#4a3a8a"><tspan x="0" dy="-0.6em">Bedroom 2</tspan><tspan x="0" dy="1.2em" font-size="6.4" fill="#444">12.8 m²</tspan></text></g><polygon points="40.0,626.7 456.0,626.7 456.0,920.0 40.0,920.0" fill="#e6e2f0" stroke="#4a3a8a" stroke-width="1.2"/><g transform="translate(248.0,773.3)"><text text-anchor="middle" dominant-baseline="central" font-family="ui-sans-serif,system-ui" font-size="8.0" fill="#4a3a8a"><tspan x="0" dy="-0.6em">Bedroom 3</tspan><tspan x="0" dy="1.2em" font-size="6.4" fill="#444">19.1 m²</tspan></text></g><polygon points="694.8,40.0 1160.0,40.0 1160.0,184.0 694.8,184.0" fill="#f0e3d6" stroke="#8a553a" stroke-width="1.2"/><g transform="translate(927.4,112.0)"><text text-anchor="middle" dominant-baseline="central" font-family="ui-sans-serif,system-ui" font-size="8.0" fill="#8a553a"><tspan x="0" dy="-0.6em">Full Bathroom 1</tspan><tspan x="0" dy="1.2em" font-size="6.4" fill="#444">10.5 m²</tspan></text></g><polygon points="40.0,482.7 1160.0,482.7 1160.0,626.7 40.0,626.7" fill="#f0e3d6" stroke="#8a553a" stroke-width="1.2"/><g transform="translate(600.0,554.7)"><text text-anchor="middle" dominant-baseline="central" font-family="ui-sans-serif,system-ui" font-size="8.0" fill="#8a553a"><tspan x="0" dy="-0.6em">Full Bathroom 2</tspan><tspan x="0" dy="1.2em" font-size="6.4" fill="#444">25.2 m²</tspan></text></g><text x="40.0" y="20.0" font-family="ui-sans-serif,system-ui" font-size="14" fill="#1a1a1a">Step 4.2 random feasible tree · seed 5 · 14000x11000</text></svg>